<?xml version="1.0" encoding="UTF-8"?><svg xmlns="http://www.w3.org/2000/svg" viewBox="0 0 1919 1267.81"><g id="BaseHorse"><g id="BaseHorse-2"><path d="M1806.95,425.12c5.1,16.76,11.73,20.71,24.87,20.92,5.98.09,11.96.52,17.94-.01,1.72-.15,3.25.09,4.7,1.08,1.95,1.34,4.53,1.55,6.23.62,8.56-4.68,18.1-3.24,27.14-4.68,7.57-1.21,11.47-3.74,10.91-11.34-.69-9.21,2.19-15.68,9.15-21.57,6.03-5.1,8.28-12.97,11.11-20.2v-8c-1.36-1.24-2.92-.95-4.13-.07-2.35,1.71-3.34,1.24-4.47-1.47-2.32-5.57-3.35-5.7-9.66-5.02-10.6,1.14-19.33,5.21-25.78,14.11-2.32,3.2-3.34,5.63.32,9.06-7.12,2.3-13.17,5.64-19.66,7.96-2.13.76-3.44-.26-4.52-2-5.17-8.35-11.43-15.92-17.32-23.76-2.71-3.31-4.6-7.39-8.73-9.38-5.68,2.53-9.1,7.15-11.67,12.57.24,3.24,2.58,5.34,4.41,7.64,3.53,4.42,6.88,8.97,10.26,13.49,3.67,4.92,3.51,5.49-2.01,7.72-5.08,2.06-10.19,4.07-15.13,6.45-2.32,1.12-5.04,2.3-3.96,5.87Z" style="fill:#2f1a0f; stroke-width:0px;"/><path d="M1833,381.05c2.97,5.75,7.74,10.2,11.24,15.57,1.8,2.77,4.33,5.19,5.57,8.17,1.82,4.38,4.28,3.83,7.74,2.42,6.52-2.66,12.66-6.31,20.23-7.67-1.36-1.47-2.3-2.59-3.34-3.6-1.29-1.25-1.27-2.2-.21-3.81,7.09-10.72,17.51-15.1,29.79-16.17,2.13-.19,3.48.67,4.31,2.58.98,2.26,1.99,4.51,3.06,6.91,2.52-1.49,4.47-3.86,7.61-3.5,0-2,0-4,0-6-5.76-7.63-11.52-15.25-17.28-22.88-2.34-2.75-5.27-2.67-8.2-1.41-18.67,7.97-37.63,15.27-56.1,23.72-2.31,1.06-5.17,2.06-4.42,5.68Z" style="fill:#69341c; stroke-width:0px;"/><path d="M1630.04,1267.81q8.88-1.9,8.88-11.68c0-16.79,0-33.58,0-50.37-3.63-5.08-9.08-6.77-12.8-3.96-.84,2.42-.63,4.93-.63,7.41-.02,14.28-.03,28.57,0,42.85,0,4.98.02,9.96-.67,14.91,0,.3.08.58.23.84h5Z" style="fill:#826449; stroke-width:0px;"/><path d="M1068.31,1076.55c1.78-1.4,3.08.34,4.43.86,22.28,8.58,44.75,16.62,67.16,24.84,15.87,5.82,31.38,5.77,47.43,2.34,30.25-6.46,59.76-15.01,87.63-28.83,17.73-8.79,36.98-12.58,56.52-14.91,3.46-.41,6.94-.8,10.42-.97,1.77-.09,2.65-1.18,3.64-2.27,11.76-12.92,23.13-26.16,34.09-39.78,7.87-9.79,9.08-20.04,5.96-31.74-4.16-15.61-12.27-29.32-19.86-43.3-24.79-45.63-49.63-91.22-74.46-136.83.6-1.58-.15-2.94-.94-4.14-3.33-5.08-5.42-10.83-8.72-15.92-5.65-11.38-8.03-23.69-8.95-36.13-1.33-18.06.43-35.9,7.19-54.06,1.16,3.78,2.15,6.77,3.17,9.75,4.61,13.4,11.23,25.58,21.66,35.42,14.88,14.04,32.52,17.94,52.24,14.1,1.63-.32,3.24-.77,4.91-.82,2.68-.47,5.06-1.54,7.04-3.44,4.59-5.03,10.51-8.56,14.97-13.86,17.48-20.7,25.97-45.04,27.26-71.5,1.38-28.48,8.73-54.94,20.81-80.54,19.41-41.16,44.48-78.79,71.02-115.52,11.31-15.65,23.05-30.98,35.09-46.09,1.19-1.49,4.31-3.4.22-5.33-.65-.17-1.32-.34-1.98-.26-23.98,2.63-47.31-2.91-70.86-5.65-23.32-2.7-46.24-7.74-69.22-12.4-27.77-5.73-54.76-14-80.56-25.84-35.54-16.3-69.94-34.81-103.88-54.19-1.45-.83-2.91-1.63-4.69-1.39-4.14,1.45-6.45,5.1-9.38,7.95-7.22,7.02-15.79,8.78-24.71,4.37-5.1-2.52-10.15-4.56-15.93-5.21-5.21-.59-9.18-4.41-13.42-7.29-1.91-1.3-3.66-2.95-6.26-2.56-6.4,1.57-12.95,1.62-19.46,2.1-1.79.13-3.6,0-5.36.49-6.86,3.3-12.16,8.67-17.81,13.55-10.49,9.07-20.18,18.87-27.52,30.79-6.79,11.02-9.67,22.69-7.93,35.76,1.88,14.16-.31,28.25-2.98,42.18-6.04,31.51-15.79,61.93-27.19,91.86-1.08,2.84-3.07,4.64-5.63,6.06-7.87,4.37-16.49,6.21-25.28,7.28-16.71,2.05-33.18-.07-49.58-3.15-2.12-.4-4.24-1-6.4-.22-1.54.65-1.64,2.01-1.5,3.36,1.44,13.85,5.45,26.68,14.91,37.34,3.39,3.82,7.65,5.76,12.64,6.28,9.93,1.04,19.74,2.96,29.71,3.69,1.5.11,3.01.44,4.47.07,8.85-2.25,14.92,2.84,20.98,7.92,2.77,2.32,1.28,3.76-1,5.32-8.2,5.62-17.24,9.24-26.73,12.02-21.08,6.17-42.15,12.38-63.22,18.57-6.12,1.8-6.71,2.77-5.85,9.34,3.21,24.53,9.22,48.35,18.14,71.44.66,1.71,1.31,3.43,2.78,4.65,1.15.81,2.5,1.07,3.81.8,17.58-3.61,33.5-10.26,44.14-25.66,3.39-4.91,6.57-10.38,5.81-16.68-1.85-15.52,5.08-27.81,14.01-39.36,13.78-17.84,29.78-33.58,46.35-48.82,9.43-8.67,19.11-17.06,25.29-22.59-13.71,14.64-27.98,34.19-37.56,56.98-10.53,25.05-11.13,49.77,0,75.02,12.95,29.37,27.63,57.61,47.68,82.83,1.96,2.46,4.51,4.44,5.98,7.3,2.77-.76,4.02.13,5.49,2.92,7.24,13.71,18.02,24.72,28.87,35.51,40.96,40.69,85.31,77.35,132.62,110.45,15.91,11.14,30.4,23.81,41.53,39.94,4.07,5.9,7.37,12.19,9.67,19.03.79,2.35.48,3.42-1.84,4.6-27.83,14.09-55.55,28.38-84.28,40.62-11.66,4.97-23.93,5.53-36.21,5.68-26.68.33-53.2-2.44-79.72-4.96-4.81-.46-6.39-5.02-10.1-6.72-10.09,3.88-19.28,9.29-27.58,16.22-5.17,4.92-10.12,10.03-12.77,16.85-.55,1.41-2.04,2.82-.41,4.47Z" style="fill:#a24f2a; stroke-width:0px;"/><path d="M756.8,298.08c-41.29-9.47-81.29-23.01-120.82-38.04-23.18-8.81-46.55-7.67-69.99-1.5-27.76,7.3-52.71,20.6-76.39,36.5-1.63,1.09-3.07,2.56-5.15,2.83-1.69.2-2.76,1.51-4.12,2.29-9.01,6.68-17.96,13.43-26.35,20.89-.77.78-1.52,1.58-2.3,2.36-1.05,1.32-2.71,2.08-3.46,3.69-8,8.42-16.15,16.7-23.97,25.28-8.54,9.36-15.95,19.59-22.71,30.32-11.66,18.52-14.64,39.38-16.15,60.51-2.64,37.15-.67,74.29,2.14,111.32,2.79,36.75,22.8,63.28,52.61,83.36,15.88,10.69,32.74,19.68,49.39,29.02,19.34,10.84,37.86,22.77,54.4,37.73,19.55,17.68,42.1,31.44,63.08,47.25,6.39,4.82,12.29,10.18,17.89,15.92,11.04,11.31,14.48,24.76,12.84,40.28-2.64,25.06-8.65,49.38-14.91,73.67-4.47,17.35-9.33,34.6-13.81,51.95-1.86,7.19-.92,9.11,5.4,13.24,9.92,6.48,21.06,10.2,32.58,11.71,32.53,4.26,64.31,11.59,95.66,21.07,3.8,1.15,7.54,2.36,11.08,4.15,23.54,8.29,47.63,14.86,71.18,23.11,10.68,3.74,21.26,7.75,31.92,11.52,8.68,3.07,15.25,8.65,20.69,15.8,4.23,5.57,8.17,11.35,11.62,17.43,2.22,3.92,5.22,5.49,9.73,5.53,5.13.04,10.24,1.09,15.37,1.4,10.54.65,18.06,6.23,22.53,15.12,4.23,8.4,10.15,11.43,19.2,10.47,6.76-.72,13.63.33,20.43-.5,6.17-.73,12.42-.65,18.55-1.68,5.32-.86,10.28-3.04,15.5-4.3,1.05-1.83.42-3.48-.46-5.15-10.68-20.24-22-40.11-34.04-59.59-8.4-13.59-20.13-21.7-34.8-27.24-35.02-13.21-70.42-25.32-105.66-37.88-1.09-.39-2.16-.81-3.24-1.21-1.56-2.22-4.05-2.78-6.4-3.58-16.71-5.67-33.3-11.67-49.71-18.17-9.97-3.95-19.2-9.22-27.64-15.83-7.49-5.87-11.83-12.72-12.32-23.11-1.36-28.91.89-57.46,5.32-85.94,2.57-16.55,8.75-32.09,13.56-48.01,7.93-26.2,13.11-52.97,17.24-79.97.25-1.65.24-3.32.2-4.98-.29-2.97.84-5.49,2.31-7.99,10.29-17.44,18.04-35.94,23.53-55.44,9.6-34.06,7.45-67.07-7.9-99.16-4.81-10.05-8.85-20.46-13.61-30.55-5.32-4.56-12.07-6.19-18.36-8.65-15.52-6.07-31.38-11.04-48-13.2-7.47-.97-14.95-.39-22.43-.45-4.82-.04-4.96.04-3.62-4.48,4.45-15,9.68-29.74,15.33-44.32,10.84-27.98,23.36-55.15,39.87-80.31,4.65-7.09,9.66-13.94,15.37-20.26,1.05-1.16,2.66-2.22,1.74-4.24Z" style="fill:#a24f2a; stroke-width:0px;"/><path d="M1368.1,749.92c-1.76,1.45-3.77,2.42-5.95,3.06-12.73,5.36-24.97,11.76-37.62,17.29-12.68,5.54-25.53,10.57-38.93,14.11-1.72.46-3.74.4-4.58,2.49,3.42,6.36,6.83,12.72,10.25,19.08,26.68,7.78,52.65,17.61,78.62,27.4,50.46,19.01,100.5,39.06,149.66,61.24,9.64,4.35,19.26,8.74,28.54,13.86,12.22,6.74,19.87,16.77,22.45,30.59,2.52,13.51,5.58,26.94,7.58,40.52,2.96,20.16,2.01,40.53,2.08,60.84.08,25.98-.8,51.95-1.91,77.9-.32,7.5,1.11,14.4,4.25,21.2,6.4,13.86,6.66,28.22,2.49,42.75-.92,3.22-2.46,6.24-5.23,8.28-1.21.89-1.62,1.86-1.94,3.22-1.5,6.45-3.18,12.85-4.66,19.3-.28,1.24-.26,2.73.16,3.92,4.08,11.58,8.72,22.89,15.58,33.17,3.35,5.03,7.64,8.91,12.91,11.78,3.12.97,3.69-1.38,4.29-3.44.6-2.09.42-4.29.42-6.44.01-15.94-.02-31.89.02-47.83.02-6.6.39-6.71,6.85-5.72,4.56.7,8.83,3.09,13.63,2.3,4.4.61,8.25,2.53,11.88,4.97-.76-21.8-1.46-43.59-2.29-65.39-.79-20.64-1.81-41.26-2.57-61.9-1.28-34.45-2.51-68.91-3.59-103.37-.42-13.48-.69-26.99-.41-40.47.15-7.23-1.25-13.88-4.45-20.17-5.93-11.66-12.08-23.2-18.13-34.8-.46-.88-1.05-1.74-1.3-2.68-5.39-20.39-20.51-31.73-37.82-41.29-21.19-11.7-42.38-23.43-62.37-37.18-26.91-18.51-47.58-42.86-65.66-69.67-3.79-5.62-7.42-11.36-11.12-17.04-1.65-.77-2.93.17-4.06,1.09-17.24,13.87-36.45,24.7-55.42,35.9-.57.33-1.11.72-1.63,1.14Z" style="fill:#3e2011; stroke-width:0px;"/><path d="M452.2,323.95c.69-.65,1.39-1.3,2.08-1.95.85-4.11,4.99-5.1,7.58-7.35,5.52-4.78,11.22-9.47,17.47-13.37.57-.35,1.1-.71,1.81-.46,1.49-.55,2.5-1.64,3.31-2.96-25.69-8.63-51.51-12.15-77.71-2.09-3.73,1.43-7.21,3.31-10.51,5.54-2.79,2.57-5.85,4.86-8.13,7.95-22.7,25.71-47.6,48.88-76.85,67.06-18.79,11.68-39.48,18.44-60.96,22.89-23.52,4.88-47.35,7.13-71.39,7.32-11.79-.05-23.57.06-35.35-.07-3.99-.12-7.98-.09-11.97.03-3.28-.16-6.62.43-9.84-.7-10.49-.67-20.99-.62-31.48-.07-3.22,1.05-6.67.79-9.91,1.72-7.94,1.51-15.49,4.24-22.88,7.44-3.38,1.88-6.87,3.55-10.36,5.23-13.29,7.3-25.42,16.17-36.16,26.92-1.72,1.82-3.6,3.52-4.61,5.9-2.04,7.36-5.08,14.42-6.36,21.99,4.59.54,7.88-2.74,11.67-4.29,27.63-11.27,56.45-17.93,85.8-22.41,10.29-1.57,20.43,1.3,30.44,3.71,13.78,3.32,26.69,8.82,39.07,16.14-17.37-3.08-34.74-6.17-52.93-9.39,5.19,6.62,11.48,10.57,18.05,13.95,6.56,3.38,13.41,6.2,20.14,9.26,7.64-.31,14.65,2.73,21.94,4.24,10.27,2.13,20.65,4.18,30.97,5.18,28.5,2.74,56.5.29,82.68-12.83,13.01-6.52,24.89-14.79,36.03-24.08,10.45-8.72,20.64-17.76,29.66-28.03,3.09-3.51,5.88-7.22,8.63-10.98,1.46-1.99,2.68-4.24,5.17-5.2,9.41-17.81,15.64-36.99,23.7-55.38,7.59-17.3,21.63-25.21,39.8-26.86,5.45-.49,10.92-.75,16.38-1.12,1.87-.61,2.99-2.5,4.98-2.88Z" style="fill:#472310; stroke-width:0px;"/><path d="M948.15,721.87c-8.63-19.87-14.15-40.65-18.03-61.91-.92-5.05-1.07-10.28-2.43-15.19-1.27-4.56.69-5.73,4.42-6.78,24.87-7.02,49.73-14.11,74.35-22.01,7.4-2.37,13.45-7.13,20.08-10.87,1.77-1,1.51-1.92.26-3.01-7.13-6.19-13.62-12.43-24.86-10.81-9.05,1.3-18.4-2.41-27.61-2.59-18.11-.35-24-13.07-28.92-26.88-2.19-6.15-4.06-12.59-3.28-19.35,5.73-40.47,14.48-80.38,22.3-120.46.48-2.45,1.06-4.98-1.39-6.87-13.45-7.57-27.79-13.17-43.16-14.05-12.42-.7-24.78,1.57-34.97,10.02-2.29,6.89-1.59,14.12-2.17,21.19-1.48,18.03-2.51,36.09-3.83,54.13-.83,11.25-1.09,22.55-2.01,33.8-.79,26.97-4.28,53.64-8.53,80.25-1.19,7.48-2.48,15.08-.84,22.8.91,4.3,2.23,8.35,4.34,12.15,5.14,9.23,8.76,18.93,10.63,29.39,1.32,7.36,3.77,14.47,6.33,21.51,5.78,17.01,13.23,33.26,22.41,48.72,1.71,2.88,3.61,5.54,6.1,7.77,5.88,12.05,16.2,17.57,28.73,20.74,10.31,2.61,20.29,6.56,31.28,10.2-2.79-4.11-5.13-7.54-7.46-10.98.1-2.33-1.28-4.08-2.42-5.87-6.31-9.94-11.96-20.23-16.46-31.12-.64-1.54-1.27-3.07-2.84-3.93Z" style="fill:#010101; stroke-width:0px;"/><path d="M976.14,1082.8c-9.16,0-18.31-.05-27.47.04-3.32.03-5.65-1.06-7.2-4.2-1.39-2.81-3.42-5.29-5.01-8.01-5.61-9.62-14.65-12.93-25.07-13.75-4.46-.35-8.95-1.04-13.4-.88-3.75.14-5.72-1.41-7.42-4.44-4.24-7.54-9.18-14.62-14.59-21.38-5.63-7.02-13.1-11.03-21.36-14.05-31.8-11.65-64.03-21.98-96.43-31.81-1.47-.45-2.91-.62-4.42-.44,17.47,11.46,35.13,22.65,52.38,34.42,46.95,32.05,88.81,69.97,127.59,111.41,14.57,15.56,28.97,31.29,42.45,47.78,12.25,14.98,27.94,18.58,46.03,15.98,3.94-.57,7.91-1.05,11.79-1.89,7.57-1.62,12.96,1.53,16.94,7.57,5.02,7.65,7.27,16.31,8.11,25.28.31,3.3,1.55,5.05,4.55,6.18,10.95,4.13,21.74,8.74,33.49,10.18,2.74-2.38,2.5-5.67,2.53-8.79.1-10.98.03-21.95.04-32.93,0-4.99-.11-9.97.69-14.93.48-3.02.51-6.09-3.23-7.38-7.19-6.82-16.41-10.36-24.79-15.26-19.7-11.53-37.02-26.24-54.6-40.6-.51-.41-1.08-.75-1.62-1.12-2.79.55-2.3,2.9-2.32,4.68-.1,7.64-1.59,15.11-2.4,22.66-.54,5-1.52,5.66-6.4,5.12-3.61-.4-7.2-1.02-10.74-1.89-4.69-1.17-9.3-2.55-13.84-4.21-3.39-1.24-4.97-3.33-4.92-7.09.18-16.13.1-32.26.03-48.4-.01-2.67,1.2-5.2.61-7.88Z" style="fill:#3f2011; stroke-width:0px;"/><path d="M917.33,742.84c-8.26-13.75-16.15-27.7-22.05-42.67-1.75-4.43-3.37-8.91-5.05-13.36-11.77-8.35-22.19-18.03-29.59-30.6-5.25-8.91-7.8-18.56-8.2-28.94-.71-18.48,2.25-36.78,2.2-55.25-.06-21.81-5.67-41.66-17.65-59.82-3.2-4.86-6.47-9.67-9.66-14.54-1.11-1.53-2.69-2.45-4.35-3.2-14.05-6.26-27.68-13.41-41.82-19.48-1.56-.67-3.12-2.11-5.05-.82,2.1,7.72,6.17,14.63,9.22,21.96,6.68,16.05,13.96,31.85,16.55,49.29,1.67,11.25,1.57,22.47.02,33.66-2.39,17.29-6.91,34.02-13.67,50.14-4.31,10.27-9.03,20.34-14.88,29.82-1.58,2.55-2.54,4.99-2.08,7.94.99.16,1.63-.6,2.43-.93,23.94,15.2,48.18,29.91,73.36,43.01,23.07,12,46.34,23.58,70.27,33.78Z" style="fill:#7a4421; stroke-width:0px;"/><path d="M773.7,666.04c-1.55-1.61-1.62.62-2.43.93-1.92,19.67-6.04,38.96-10.35,58.2-4.32,19.3-11.12,37.87-16.66,56.82-4.76,16.3-6.83,33.08-8.14,49.97-1.07,13.76-2.02,27.52-1.84,41.33.09,6.64.11,13.34,1,19.9.97,7.19,6.25,11.96,11.5,16.33,11.01,9.15,23.83,15.14,37.14,20.03,16.06,5.89,32.24,11.45,48.37,17.16-5.4-19.59-10.96-39.14-16.16-58.79-9.62-36.36-18.11-73.01-22.53-110.39-4.32-36.59-10.03-72.88-19.47-108.52-.25-.96-.29-1.97-.43-2.96Z" style="fill:#3f2011; stroke-width:0px;"/><path d="M948.15,721.87c5.52,14.56,13,28.07,21.72,40.93,10.86,2.2,21.16,6.28,31.78,9.33,30.51,8.76,61.4,15.53,92.92,19.41,2.8.34,5.65.28,8.47.41,1.95-1.78-.11-2.61-.96-3.55-12.48-13.71-22.24-29.33-31.26-45.37-8.94-15.9-16.43-32.5-23.13-49.52-8.35-21.23-6.34-41.87,1.41-62.48,9.08-24.16,23.91-44.6,41.54-63.18.87-.92,2.21-1.59,2.05-3.61-3.51.72-5.46,3.69-7.74,5.64-19.19,16.44-37.93,33.42-55.07,51.99-10.65,11.54-21.02,23.48-27.4,38.2-1.83,4.23-2.77,8.56-2.31,13.08,1.77,17.45-7.14,29.17-20.85,37.83-9.43,5.96-19.75,10.18-31.15,10.89Z" style="fill:#7a4421; stroke-width:0px;"/><path d="M367.33,410.19c-3.25-2.18-3.97,1.11-4.97,2.64-5.3,8.07-11.64,15.28-18.55,21.92-16.36,15.72-33.42,30.72-53.77,41.08-15.39,7.83-31.74,12.69-49.24,14.42-11.82,1.17-23.59.68-35.08-.22-10.6-.83-21.48-2.66-32-5.4-5.76-1.5-11.6-2.68-17.34-4.22-1.94-.52-3.22-.34-4.13,1.48,32.23,17.91,65.52,33.18,102.35,38.75,25.68,3.88,46.78-6.19,64.85-23.6,21.04-20.27,33.68-45.69,43.54-72.69,1.69-4.62,3.72-9.19,4.34-14.16Z" style="fill:#40200f; stroke-width:0px;"/><path d="M1627.04,1200.78c-5.83-2.93-12.32-3.31-18.52-4.79-3.58-.86-3.49,1.81-3.49,4.27.03,18.42.03,36.84,0,55.26,0,2.62.36,5.51-3.19,6.4,7.12,4.11,15.03,4.66,22.98,5.05,2.77-1.27,2.22-3.78,2.22-6.04.01-20.05,0-40.1,0-60.14Z" style="fill:#6c4d33; stroke-width:0px;"/><path d="M1054.18,1013.88c-15.31,6.77-28.02,17.29-40.65,27.98-3.08,2.61-.56,3.43,1.1,4.46,13.4,8.33,25.73,18.41,40.45,24.56,2.97-1.25,3.41-3.96,3.45-6.61.24-14.57.26-29.15-.01-43.72-.05-2.88-.19-6.22-4.34-6.67Z" style="fill:#482d1a; stroke-width:0px;"/><path d="M1054.18,1013.88c2.63,1.62,2.95,4.19,2.95,6.96-.02,14.33-.07,28.65.04,42.98.02,2.66-.91,4.85-2.08,7.06,4.24,2.29,8.3,4.98,13.22,5.67,2.23-8.49,8.09-14.54,13.84-20.68,1.13-10.6.22-21.24.49-31.86.06-2.49.12-4.99-.15-7.47-.32-2.86-1.1-5.55-3.39-7.54-8.86-1.21-17.14.53-24.91,4.88Z" style="fill:#604126; stroke-width:0px;"/><path d="M994.2,1151.75c4.68,1.06,9.37,1.88,14.18,2.27,2.58.21,3.49-.26,3.84-2.91,1.2-9.02,2.84-17.98,2.95-27.11.02-1.43-.46-3.04.96-4.18-.63-.97-1.08-1.94-1.08-3.18,0-13.12-1.95-26.02-4.54-38.84-.46-.8-.89-2.4-1.97-1.5-3.64,3.05-8.44,2.64-12.42,4.54-1.81,1.49-2.46,3.51-2.48,5.75-.19,21.1-.1,42.2-.04,63.29,0,.67.27,1.29.6,1.88Z" style="fill:#785a3f; stroke-width:0px;"/><path d="M1097.13,1176.78c1.91,1.49,2.27,3.52,1.97,5.75-2.11,15.8-.55,31.67-.94,47.5-.09,3.64-.35,7.22-1.06,10.78,7.67,2.15,15.36,2.07,23.06.14,2.14-2.22,2.45-5.02,2.47-7.89.07-12.16.07-24.32,0-36.48-.02-3.38-.51-6.65-2.57-9.49-7.16-4.52-14.74-8.09-22.94-10.3Z" style="fill:#5b3c22; stroke-width:0px;"/><path d="M1120.07,1187.08c1.95,12.99.7,26.06,1.03,39.1.13,4.95.14,9.89-.94,14.76,12.18-1.5,23.24-6.45,34.41-11.12,2.68-1.12,1.55-2.77.94-4.44-4.54-12.43-12.82-22.03-22.98-30.15-3.88-3.1-7.9-6.07-12.47-8.15Z" style="fill:#6f5036; stroke-width:0px;"/><path d="M1079.09,1009c4,13.19,1.2,26.72,2.01,40.08.14,2.31-.31,4.68,1.04,6.8,7.5-5.61,15.37-10.58,23.91-14.47,1.18-.54,2.44-1.04,3.01-2.38-.11-1.98-.59-4.03-.25-5.93,1.11-6.26-1.84-10.32-6.55-13.82-6.98-5.18-14.22-9.62-23.18-10.26Z" style="fill:#785a40; stroke-width:0px;"/><path d="M452.2,323.95c-3.13-1.58-3.51,1.6-4.98,2.88.33.09.67.17,1,.26,1.84-.39,3.02-1.62,3.98-3.14Z" style="fill:#40200f; stroke-width:0px;"/><path d="M1395.31,400.74c16.48,3.54,32.98,6.98,49.62,9.67,18.78,3.04,37.59,5.78,56.54,7.51,9.19.84,18.3,2.96,27.62,1.97,3.29-.35,6.57-.74,9.85-1.11,3.47.41,6.99,1.13,9.86-1.77,16.79-2.18,33.59-4.33,50.38-6.56,21.06-2.8,42.11-5.67,63.16-8.53,20.89-2.83,41.78-5.7,62.68-8.5,13.81-1.85,27.62-3.61,41.44-5.4,4.22,1.18,8.35.15,12.49-.54,4.78-.15,9.31-1.21,13.37-3.85,4.52-4.67,6.85-9.96,5.07-16.62-.99-3.72.45-7.58-.24-11.35-1.27-5.76-6.2-8.52-10-12.19-1.05-3.06,1.77-3.65,3.29-4.8,20.18-15.23,40.41-30.4,60.64-45.56,1.86-1.39,3.89-2.62,4.71-4.99,6.01-6.01,7.17-12.73,3.21-18.68-4.4-6.6-10.66-8.01-19.17-4.3-2.91.12-4.79,2.18-6.89,3.75-21.98,16.46-44.01,32.87-65.87,49.49-3.4,2.58-5.58,2.76-8.89-.25-17.12-15.56-33.76-31.56-49-49-6.04-6.9-11.78-14-17.1-21.45-7.7-10.8-9.99-23.53-12.41-36.07-4.63-24.02-8.03-48.23-10.47-72.58-.43-4.29-.69-8.63-1.53-12.87-.69-3.49.49-5.27,4.11-5.86,19.05-3.13,38.14-5.95,57.19-9.03,4.6-.74,9.2-1.49,13.79-2.27,2.28-.39,4.63-.87,6.01-3.1,9.28-9.85,7.75-20.93-3.25-25.03-4.77-1.78-9.12.28-13.66.47-1.64.07-3.26.43-4.89.66-1.24-.99-2.63-.57-3.99-.44-11.66,1.62-23.25,3.63-34.89,5.4-10.55,1.57-21.03,3.55-31.6,4.98-2.84.9-5.86.86-8.73,1.7-7.62,2.23-11.14,6.37-12.1,14.42-.06,3.5.14,6.97.67,10.45.78,5.17.25,10.22-1.48,15.24-9.46,27.6-17.36,55.6-22.33,84.42-3.05,17.64-2.18,34.7,4.39,51.52,5.81,14.9,11.51,29.82,18.62,44.16.84,1.66,1.73,3.28,2.63,4.91,2.44,3.49,5.32,6.44,10.02,5.75,4.26-.63,7.11-3.12,8-7.52.39-2.93-.49-5.57-1.77-8.16-8.64-17.49-15.99-35.47-22.02-54.05-2.83-8.72-2.68-17.55-1.73-26.19,2.05-18.69,6.81-36.89,12.06-55.16,3.03,22.2,6.48,44.05,12.18,65.5,3.96,14.88,12.58,27.12,21.97,38.83,15.54,19.37,32.91,37.03,51.19,53.84,9.9,9.1,19.95,18.03,30.65,27.62-9.67,1.4-18.61,2.73-27.64,3.56-31.35,4.27-62.73,8.35-94.07,12.67-23.26,3.21-46.57,6.01-69.8,9.4-13.82,1.88-27.62,3.96-41.49,5.4-9.78,1.02-19.54-1-29.26-2.14-31.38-3.67-62.57-8.47-93.31-15.9-1.3-.31-2.61-.53-3.94-.35-3.95,1.4-1.78,2.31.22,3.45,7.92,4.5,9.43,13.42,3.46,19.95-1.38,1.51-3.11,2.37-4.94,3.16-1.07.46-2.8.35-2.64,2.3Z" style="fill:#010101; stroke-width:0px;"/><path d="M1548.81,417.02c-3.13,1.44-6.76.16-9.86,1.77.18,3.57-3.11,5.06-4.84,7.27-17.09,21.75-33.56,43.94-49.34,66.65-17.71,25.51-34.12,51.82-48.24,79.48-9.66,18.91-18.14,38.4-22.74,59.29-1.59,7.25-2.59,14.58-2.84,22.09-.88,26.21-6.45,51.24-21.07,73.51-5.01,7.63-11.21,14.35-18.7,19.71-1.24.88-2.47,1.68-3.09,3.13,9.97-3.73,18.56-9.97,27.7-15.21,11.75-6.74,22.21-15.36,33.41-22.92,5.16-5.13,10.44-10.15,15.46-15.42,11.19-11.78,16.19-26.85,21.3-41.7,16.48-47.9,30.48-96.49,41.37-146.01,4.07-18.5,12.97-35.39,21.21-52.37,6.44-13.25,12.86-26.53,20.27-39.28Z" style="fill:#7a4421; stroke-width:0px;"/><path d="M1778.93,386.03c-4.15.67-8.31,1.34-12.46,2,10.3,7.85,20.42,15.95,30.98,23.44,5,3.55,8.07,7.88,9.5,13.64.5-3.91,3.91-4.65,6.69-5.88,4.82-2.14,9.79-3.94,14.66-5.98,4.83-2.03,5.13-3.16,1.87-7.5-4.45-5.93-9.01-11.78-13.49-17.69-1-1.31-1.88-2.71-2.81-4.07-2.83-.34-3.85,2.11-5.51,3.58-.24.22-.42.51-.63.77-8.07,9.94-12.23,10.39-22.66,2.66-2.13-1.57-3.71-3.79-6.13-4.98Z" style="fill:#793c1f; stroke-width:0px;"/><path d="M885.99,411.07c15.75-9.12,32.29-11.13,49.74-5.75,9.02,2.78,17.81,6.08,26.26,10.29,2.49-3.11,1.74-7,2.19-10.49,1.33-10.42,3.85-20.54,6.6-30.64,2.49-9.13,4.9-18.3,2.78-27.94-.91-4.12-2.3-8.02-4.57-11.51-7.7-11.83-15.37-23.68-23.57-35.17-10.22-14.92-20.17-30.04-30.45-44.92-9.33-13.51-18.74-26.97-27.92-40.58-6.76-10.03-14.44-19.47-20.07-30.26-7.77-10.37-15.7-20.59-22.4-31.76-7.41-12.34-9.87-25.22-6.64-39.2,2.04-8.86,1.72-17.49-2.34-25.77-2.67-5.44-6.61-10-10.67-14.37-7.67-8.25-14.24-17.6-23.78-24.01-11.85,5.86-24.01,11.15-35.26,18.15-14.99,9.32-29.09,19.76-37.83,35.64-5.4,9.82-10.3,19.89-14.07,30.53-2.94,8.29-5.15,16.67-7.04,25.25-4.24,19.28,1.55,35.2,13.96,49.94,7.03,8.36,14.43,16.48,22.05,24.09,9.9,9.88,19.81,19.93,30.72,28.87,5.94,4.87,12.3,9.44,17.14,15.59,2.47,4.99,7.44,7.45,11.37,10.87,21.83,18.99,43.79,37.81,65.58,56.85,3.63,3.17,7.19,6.43,11.04,9.35,2.86,2.16,4.23,4.93,4.06,8.6-.66,14.31.76,28.57,1.02,42.86.04,1.98-.71,4.46,2.09,5.48Z" style="fill:#f5f4d7; stroke-width:0px;"/><path d="M801.15,49c.02,1.8,1.56,2.4,2.62,3.4,8.96,8.47,17.15,17.65,25.11,27.06,7.81,9.22,11.19,19.84,8.15,31.55-5.19,19.94,1.7,36.57,12.95,52.22,5.24,7.28,10.8,14.33,16.21,21.49,1.23,1.31,2.84,1.78,4.52,1.7,8.3-.4,16.52,1.19,24.8,1.09,19.58,1.2,39.24,1.82,58.08,8.3,13.13,4.52,26.69,7.04,40.47,8.51,1.82.19,3.65.33,5.41.87.67.14,1.49.21,1.82-.39,2.93-5.32,6.56-10.33,7.44-16.57-1.07-2.66-3.48-3.94-5.67-5.43-11.42-7.78-22.73-15.71-34.16-23.48-.93-.63-2.02-1.12-2.38-2.15.14-.56.34-.84.68-.96,17.63-6.08,35.36-11.86,53.05-17.74,2.28-.76,4.2.09,6.2,1.05,1.57.75,2.95,2.36,5.02,1.44,2.05-4.05,4.52-7.97,4.02-12.81-3.29-1.92-5.36.92-7.48,2.3-3.41,2.23-6,2.19-9.44-.19-14.64-10.13-29.15-20.45-43.87-30.45-1.48-1-3.14-1.86-4.37-3.96,3.79-1.47,7.57-2.61,11.3-3.86,11.04-3.71,22.11-7.34,33.14-11.09,1.83-.62,4.26-.96,4.42-3.4.13-2.1-2.01-2.87-3.47-3.9-14.44-10.12-28.98-20.11-43.53-30.07-.67-.46-1.49-.76-1.97-2.1,12.01-3.76,23.74-8.28,35.73-12.08,5.23-1.66,10.36-3.62,15.56-5.39,1.46-.5,3.42-.58,3.67-2.78-25.53-3.4-51.18-5.6-76.87-7.25-15.59-1-31.22-1.43-46.78-2.69-16.05-1.3-30.38,4.08-44.6,10.25-19.03,8.26-37.46,17.76-55.74,27.52Z" style="fill:#c2b59b; stroke-width:0px;"/><path d="M57.26,415.94c7.72-2.17,14.91-6.05,23-7.02,2.68-2.12,5.88-1.85,9-1.97,11,0,21.99,0,32.99,0,3.01.23,6.29-2.02,9,.97,4,0,8,0,12.01,0,12.33-1.6,24.65-1.6,36.98,0,33.35-.77,66.27-4.41,98.14-14.9,21.53-7.09,40.35-18.96,58.14-32.76,13.64-10.58,26.33-22.21,38.25-34.61,5.07-5.27,11.01-9.96,14.47-16.69-2.78-1.57-5.57-.38-8.25.17-10.43,2.17-20.71,5.04-31.14,7.26-15.47,3.3-31.09,5.66-46.72,8.04-7.03,1.07-14.21,1.11-21.16,2.94-3.97,1.04-8.18,1.8-12.31.19-.78-.3-1.65-.29-2.46,0-9.11,3.25-18.71,2.74-28.05,2.74-8.01,0-16.14-1.32-24.18-1.8-22.19-1.31-43.2-7.66-64.32-13.62-16.05-4.52-31.36-1.35-46.51,3.94-2.17.76-5.06,1.55-3.87,5.11h12c2.54-2.69,5.59-2.43,8.8-1.6,18.06,4.66,36.11,9.37,54.19,13.94,3.88.98,7.84,1.59,11.71,2.58,2.29.59,5.03,1.34,4.84,4.19-.22,3.26-3.29,3.38-5.77,3.44-8.5.2-17,.07-25.49.08-14.66.01-29.33.3-43.99-.07-22.1-.55-42.19,6.03-60.64,17.39-19.84,12.21-32.27,30.43-39.08,52.58-2.84,9.24-4.8,18.71-7.01,28.11-.32,1.36-.93,3.07,1.45,3.35,11-10.32,23.15-19.13,35.99-26.99,2.99-2.35,6.59-3.5,10-5Z" style="fill:#602d11; stroke-width:0px;"/><path d="M1028.72,21.92c15.43,8.67,30.87,17.34,47.03,26.41-15.81,9.51-31.06,18.69-46.87,28.2,11.39,6.4,22.33,12.55,33.26,18.69,2.88,1.11,5.13-.83,7.53-1.71,5.01-1.85,10.01-3.48,15.34-4.26,7.71-1.12,13.03,2.5,17.83,7.8,1.59,1.76,2.63,4.44,5.7,4.34,3.56-3.62,4.2-10.56,1.18-16.54-2.32-4.59-4.69-9.13-6.2-14.07-3.42-11.15-4.98-22.3-.19-33.5.2-.48.03-.97-.12-1.45-24.22-7.94-49.26-11.49-74.5-13.93Z" style="fill:#c2b59b; stroke-width:0px;"/><path d="M100.25,323.94c0-2.06,1.46-2.95,3.07-3.47,11.06-3.56,22.18-7.25,33.99-6.42,9.62.68,18.82,3.72,28.01,6.48,13.92,4.17,28.11,7.53,42.46,8.93,6.22.61,12.62,1.89,19.31,1.28,4.89-.45,10.59,1.43,15.98,1.15,6.58-.33,13.62.3,19.61-1.41,6.78-1.93,13.42,1.15,19.74-1.54,6.4-2.73,13.46-2.26,20.04-3.08,20.3-2.52,40.25-6.54,60.17-10.91,8.88-1.95,17.73-3.99,26.59-5.99,2.7-2.22,5.64-4.21,7.02-7.63-24.89,7.71-50.31,13.12-75.94,17.63-20.96,3.69-42.07,6.35-63.3,7.64-27.91,1.69-55.46-.78-82.49-8.25-6.71-1.85-13.54-3.32-20.14-5.49-14.28-4.7-28.39-3.93-42.59.29-18.57,5.51-36.63,12.36-54.3,20.38,13.92-4.74,28.18-7.93,42.78-9.57Z" style="fill:#612e11; stroke-width:0px;"/><path d="M11.26,447.94c-2.67-2.81.82-4.81,1.22-7.15,3.1-18.24,8.04-35.99,18.68-51.45,8-11.63,18.49-20.62,30.99-27.44,18.53-10.11,38.13-14.62,59.24-14.07,20.81.54,41.64.12,62.46.12.67,0,1.33-.01,2,0,3.5.08,7.46-.36,8-4.23.59-4.18-3.11-5.63-6.81-6.36-14.95-2.94-29.62-7.01-44.3-11.05-7.95-2.19-15.98-4.14-24.02-6-3-.69-6.24-.99-6.49,3.63,25.59,4.61,50.19,13.28,75.69,19.06-1.59,0-3.18,0-4.78,0-22.97,0-45.95-.6-68.9.14-33.27,1.07-61.75,13.57-83.16,39.52-13.17,15.97-18.86,35.52-22.83,55.51-.96,4.86-2.31,9.7-1.93,14.75,1.95-1.35,3.65-2.96,4.91-5Z" style="fill:#612e11; stroke-width:0px;"/><path d="M1723.98,82.97c1-.32,2-.64,3-.96-1.63-2.49-2.83-5.47-4.98-7.39-8.21-7.33-8.18-16.54-6.8-26.24,1.43-10.09.55-20.24.91-31.83-5.62,10.93-12.41,19.36-19.28,27.75-1.7,2.08-2.62,2.85-5.41,1.1-16.68-10.42-35.01-14.91-54.61-13.57-29.27,2-56.23-5.06-81.27-20.04-.53-.32-.94-.96-2.02-.44,4.46,9.65,8.93,19.31,14.13,30.56-16.74-11.7-34.4-5.51-51.39-6.7,6.62,2.48,13.28,4.75,18.66,11.35-15.12-5.43-29.04-5.16-42.65,1.71,17.14-.47,29.83,6.96,38.81,21.46-13.24-8.03-25.83-5.3-39.51,2.31,5.82-.04,10.42-.47,14.53,2.08,4.38,2.71,5.96,6.85,6.48,11.8-21.74.89-42.04,5.62-59.45,21.89,16.65-3.48,31.88-8.35,47.99-7.8-20.59,4.94-38.44,14.78-55.28,29.65,14.66-2.1,27.87-3.99,41.08-5.88-17.98,3.81-34.93,11.32-53.08,14.29-3.55.58-7.03,1.85-10.42,3.15-8.65,3.33-17.22,6.89-27.73,3.3q3.32,4.83,14.72,6.65c-8.85,8.12-19.02,11.11-30.64,10.31-9.7-.67-19.33-1.87-30.36-3.61,11.17,7.75,21.2,14.56,32.63,19.24-10.79,1.79-21.42,2.84-31.65-5.91,3.82,7.92,7.61,14.09,15.05,18.83-13.78-.05-26.79-1.56-38.16,7.8,4.13-.97,7.75-.97,11.35-.89,3.59.08,7.3-.62,11.29,1.36-18.02,5.67-34.04,14.14-49.2,24.26-9.13,6.1-18.59,10.79-30.23,9.02,3.95,2.51,7.91,5.02,12.81,8.13-15.88-1.39-30.64-.76-45.4.58-6.62.6-13.16-.79-19.75-2.68,3.69,3.15,7.39,6.29,11.47,9.77-15.84,6.42-30.85,13.27-42.51,25.59,3,2.08,6.54,2.15,9.91,2.22,3.54.07,5.41,1.59,6.52,4.79.91,2.62,1.71,5.34,3.62,7.5,2.32,1.75,4.86,3.03,7.73,3.61,16.14-.05,32.21-1.39,48.24-3.06,25.97-2.7,51.23-8.46,75.34-18.7,17.25-7.33,33.16-16.97,48.28-28.02,47.47-34.68,94.75-69.6,140.8-106.15,23.47-18.62,46.9-37.31,68.66-57.96,5.04-4.78,5.45-4.53,9.13,1.12,6.08,9.34,12.01,18.89,21.4,25.42,3.06,2.13,6.12,4.67,10.29,4.29.6-8.21,5.24-12.57,14.89-13.98,1.42-.21,3,.34,4.16-.95-8.8-6.26-13.27-15.38-17.02-25.12-3.02-7.84-8.87-13.92-13.52-20.34,10.41,2.48,19.31,10.35,30.9,10.29,17.71,2.54,34.87,6.95,51.06,14.76,5.87,2.83,10.78,7.21,16.5,10.3Z" style="fill:#331c10; stroke-width:0px;"/><path d="M1748.79,105.91c-10.61,3.52-21.77,4.1-32.68,5.99-15.35,2.66-30.78,4.89-46.18,7.27-2.87.44-4.3,1.62-3.91,4.91,4.1,34.23,7.67,68.53,15.49,102.22,3.04,13.1,9.98,23.8,18.25,33.87,18.22,22.17,38.75,42.11,60.1,61.22,1.29,1.15,2.06,2.66,4.42.87,25.11-19.13,50.35-38.09,75.55-57.1-16.03-22.33-28.5-46.5-39.05-71.89-13.1-31.53-30.14-60.93-52-87.35Z" style="fill:#a24f2a; stroke-width:0px;"/><path d="M1855.8,288.13c-22.8,17.09-45.63,34.16-68.36,51.33-1.31.99-5.39,1.96-1.34,4.77,2.5.9,4.53-.63,6.67-1.36,13.61-4.71,25.37,1.76,32.57,12.69,2.83,4.3,3.57,8.93.33,13.53-.57.81-1.07,1.71-.66,2.78,2.67,3.05,5.33,6.11,8,9.16,1.34-4.1,5.3-4.85,8.5-6.24,16.84-7.27,33.78-14.3,50.69-21.43,3.14-1.33,6.29-2.05,9.53-.32-13.56-18.85-27.15-37.69-40.64-56.58-1.91-2.67-4.26-5.1-5.28-8.35Z" style="fill:#a24f2a; stroke-width:0px;"/><path d="M1143.26,269.75c-6.33.42-9.55,3.35-11.15,10.22-2.31,9.93.56,19.26,3.42,28.57.77,2.51,1.83,4.93,2.76,7.39,3.15,2.14,6.29,4.3,9.45,6.43,4.03,2.71,8.12,4.93,13.32,4.81,3.49-.08,6.8,1.64,9.7,3.6,5.99,4.04,12.77,2.85,19.32,3.21,1.68.09,2.58-1.38,3.65-2.38,4.48-4.21,8.94-8.46,13.41-12.69,1.71-.95,3.6-1.48,5.14-2.86,5.13-4.58,5.84-6.75,2.98-12.95-2.48-5.36-3.29-11.47-7.25-16.16-.13-.11-.35-.2-.36-.33-1.59-12.49-10.59-13.82-20.57-13.66-14.61-1.07-29.22-2.13-43.83-3.2Z" style="fill:#010101; stroke-width:0px;"/><path d="M1141.41,68.03c2.17,8.51,4.75,16.96,3.58,25.93.1,7.74,3.59,14.52,6.54,21.34,4.75,11.01,9.68,22,18.8,30.36,2.16,1.99,2.47,4.5,2.12,7.33-.78,6.27-1.76,12.52-1.7,18.88.04,5.13.85,9.94,4.18,14.04.59,1.17,1.16,2.36,1.78,3.51,1.09,2.04,2.78,3.46,5.1,3.22,2.79-.29,4.96-1.72,5.55-4.77.28-1.63.65-3.3.11-4.92-5.31-15.87-2.19-31.02,3.9-45.91,4.54-11.09,7.96-22.51,9.8-34.36.39-2.51,1.53-5.18-.18-7.7-3.48-2.05-7.15-3.67-10.99-4.91-1.68,2.06-1.74,4.64-2.03,7.05-1.27,10.81-4.65,21.04-8.28,31.21-.47,1.32-.63,3.24-2.49,3.32-1.47.06-2.06-1.51-2.79-2.58-7.46-10.96-11.99-23.26-16.09-35.74-1.81-5.51-3.81-10.98-4.99-16.69-.35-1.67-1.15-3.1-2.29-4.35-3.17-1.52-6.18-3.42-9.65-4.28Z" style="fill:#3e2e24; stroke-width:0px;"/><path d="M1174.92,185.91c-4.2-10.66-2.74-21.54-1.13-32.39.54-3.66.07-6.31-2.9-9.16-10.33-9.91-15.53-22.96-20.73-35.92-1.91-4.76-3.46-9.65-5.17-14.49-2.16,6.32-2.18,13.15-4.95,19.37-2.85,6.38-6.75,11.25-13.94,12.69-.82.92-1.24,2.01-1.05,3.2,1.52,9.35,3.47,18.57,8.29,26.9.42.73,1.05,1.27,1.79,1.68,8.53-.93,15.82,2.84,20,9.25,5.26,8.08,11.6,14.23,19.79,18.86Z" style="fill:#e4b891; stroke-width:0px;"/><path d="M1200.99,94.98c-2.17,17.78-8.75,34.21-14.43,51.04-4.04,11.97-6.03,25.34-.14,38.04.54,1.17.63,2.54.92,3.82,1.07-.84.68-2.53,2.66-3.11,5.27-1.55,9.7-4.88,13.87-8.31,7.65-6.31,16.44-8.56,26.08-8.5,6.17.04,6.95-1.02,5.65-6.96-1.04-4.74-.47-9.55-.35-14.33-.32-2.37-2.18-2.73-4.02-2.94-4.11-.48-8.16-.96-12.39-.43-11.07,1.4-18.33-5.14-18.35-16.16-.01-5.31.06-10.6.66-15.92.53-4.66,2.79-6.76,7.06-7.57,2.24-.42,4.69-.54,6.27-2.63-4.19-2.71-8.91-4.23-13.5-6.04Z" style="fill:#e4b891; stroke-width:0px;"/><path d="M1214.49,101.02c-17.24,3.23-13.24,2.01-15.28,17.94-.36,2.77-.1,5.63-.1,8.44,0,11.76,7.52,18.62,19.37,17.39,4.17-.43,8.26-.21,12.38.11,1.69.13,3.28.32,4.41,1.76,5.08.26,9.36-2.36,13.88-4.01,1.31-.48,2.05-2.05,1.82-3.7-.85-1.11-2.11-1.48-3.37-1.88-2.09-.47-4.26-.48-6.3-1.2-7.04-1.64-14.19-1.42-21.32-1.28-1.81-.08-3.64-.09-5.36-.79-3.75-1.41-5.07-4.31-5.24-8.11-.24-5.35,1-10.45,2.33-15.54.43-1.66,1.36-2.98,2.95-3.76,1.62-.69,3.33-1,5.03-1.38.75-.27,1.47-.57,1.57-1.51-2.17-1.07-4.22-2.44-6.77-2.48Z" style="fill:#040303; stroke-width:0px;"/><path d="M1135.13,157.8c-3.82-8.64-7.06-17.46-8.44-26.86-.24-1.63-.4-3.28-.6-4.92-2.33,0-4.65-.02-6.98-.03,2.01,20.84-7.12,38.12-17.59,54.97-.43.7-.82,1.42-1.23,2.13,12.62-7.03,24.04-15.73,34.83-25.29Z" style="fill:#c2b59b; stroke-width:0px;"/><path d="M1247.94,138.24c.82,1.06,1.93.84,3.03.71,2.95-6.34,5.9-12.68,8.85-19.02-3.33-2.32-7.14-3.54-10.92-4.84-.53.4-1.28.75-1.37,1.37-1,7.28-1.94,14.57.42,21.78Z" style="fill:#5a6587; stroke-width:0px;"/><path d="M1151.06,72.3c5.44,22.33,12.18,44.11,26.68,63.89,6.78-15.39,11.42-30.23,12.26-46.12-12.98-5.92-25.96-11.84-38.94-17.77Z" style="fill:#e4b891; stroke-width:0px;"/><path d="M1221.26,103.5c-.68.19-1.36.39-2.04.58.77,8.88.11,17.8.66,26.67.12,1.89-.88,3.46-.66,5.26,7.6-.11,15.19-.1,22.73,1.03,1.32.64,2.26.5,2.29-1.23.1-7.56.93-15.13-.24-22.68-7.58-3.21-15.16-6.43-22.74-9.64Z" style="fill:#c3ccdf; stroke-width:0px;"/><path d="M1244,113.14c-2.05,5.63-.39,11.46-.99,17.17-.24,2.25.84,4.74-1.06,6.74,1.77,1.52,4.01.7,5.99,1.2.79-7.7-.67-15.49.95-23.16-1.63-.65-3.26-1.3-4.89-1.95Z" style="fill:#969fba; stroke-width:0px;"/><path d="M1825,371.88c5.69-7.6,5.4-12.96-.92-20.37-8.65-10.13-20.8-15.78-37.99-7.28,3.64,3.29,7.9,6.01,10.01,10.73,1.35,1.18,2.87.4,4.31.31,2.93-.18,5.63.52,8.12,1.99,4.27,2.53,4.33,3.83.26,6.53-2.07,1.37-3.2,3.23-3.82,5.61-1.8,6.94-6.25,11.38-13.11,13.42-4.16,1.68-8.26,3.6-12.93,3.22,4.21,7.39,11.48,9.92,19.04,11.88,2.2.57,3.58-1.14,5.08-2.47,3.96-3.49,6.37-8.42,10.81-11.44,3.35-4.37,6.64-8.8,11.14-12.11Z" style="fill:#4d4e4e; stroke-width:0px;"/><path d="M1208.02,286.94c1.8,5.12,3.38,10.33,5.44,15.34,3.39,8.26,3.47,8.45-3.37,14.04-1.01.83-2.37,1.26-2.94,2.59,9.75,5.29,19.52,10.57,29.26,15.88,22.77,12.41,45.79,24.31,69.15,35.6,17.42,8.41,35.32,15.35,53.73,21.05,11.85,3.67,23.77,7.13,36.02,9.3,5.62-1.82,10.45-4.34,12.02-10.84,1.78-7.35-1.56-13.73-8.8-16.04-.57-.18-.85-.42-.53-1.01.07-1.99-1.59-1.87-2.77-2.12-42.91-9.33-82.01-28.03-120.37-48.65-18.32-9.84-36.64-19.67-54.58-30.2-1.62-.95-3.5-.99-5.12-1.85-2.38-1.03-4.76-2.07-7.15-3.1Z" style="fill:#791314; stroke-width:0px;"/><path d="M1281.02,786.87c26.26-6.28,50.35-17.98,74.41-29.76,2.35-1.15,4.49-2.75,6.72-4.14-5.8.07-11.36,1.88-17.21,2-23.21.51-39.2-10.99-51.16-29.71-6.47-10.13-10.22-21.37-13.57-33.74-3.72,7.75-5.63,15.19-6.97,22.72-4.19,23.44-2.95,46.5,5.5,68.97.52,1.39.65,2.97,2.28,3.64Z" style="fill:#7a4421; stroke-width:0px;"/><path d="M994.2,1151.75c1.17-1.98.93-4.16.93-6.31,0-18.76.03-37.52-.03-56.29,0-2.84.18-5.61,1.02-8.33-6.66.69-13.41.44-19.98,1.98-1.75,2-2.06,4.34-2.06,6.93,0,17.47,1.09,55.57,2.68,56.35,5.55,2.68,11.4,4.44,17.43,5.67Z" style="fill:#66472c; stroke-width:0px;"/><path d="M481.14,300.83c-2.81-1.17-4.65.92-6.45,2.27-6.36,4.77-12.58,9.71-18.72,14.76-1.08.89-3.75,1.72-1.69,4.14,8.95-7.06,17.91-14.11,26.86-21.17Z" style="fill:#40200f; stroke-width:0px;"/><path d="M180.23,407.92c-1.74-1.45-3.82-1.96-6-1.97-8.33-.04-16.66-.04-24.99,0-2.18.01-4.26.51-6,1.97,12.33,0,24.65,0,36.98,0Z" style="fill:#5f2d11; stroke-width:0px;"/><path d="M131.24,407.92c-2.42-5.67-5.83-2.28-9-.97,2.82,1.97,6.01.57,9,.97Z" style="fill:#5f2d11; stroke-width:0px;"/><path d="M57.26,415.94c-3.79.76-7.65,1.38-10,5,3.65-1.04,7-2.68,10-5Z" style="fill:#5f2d10; stroke-width:0px;"/><path d="M89.25,406.95c-3.54-1.82-6.39-.46-9,1.97,2.82-1.48,6.27-.09,9-1.97Z" style="fill:#5f2d11; stroke-width:0px;"/><path d="M878.07,521.16c-16.49-6.43-32.27-14.41-48.25-21.94-1.18-.56-2.44-.98-3.66-1.46,5.81,10.03,12.84,19.3,17.9,29.81,5.94,12.33,8.35,25.38,9.08,38.87,1.09,20.11-2.53,40.05-2.09,60.16.32,14.72,5.33,27.45,14.21,38.91,6.04,7.8,13.25,14.36,21.18,20.16,1.1.8,2.04,2.36,3.78,1.14-3.59-11.72-6.76-23.53-9.33-35.54-.98-4.56-3.62-8.94-6.21-12.96-7.5-11.65-6.99-24.31-5.1-37.11,3.17-21.48,7.19-42.84,7.77-64.64.14-5.13,1.11-10.24.72-15.41Z" style="fill:#a24f2a; stroke-width:0px;"/><path d="M1215.17,290.04c11.93,8.11,24.81,14.59,37.38,21.59,21.61,12.02,43.67,23.21,65.93,34,23.78,11.53,48.88,19.39,74.36,26.14,1.71.45,3.73-.58,5.18,1.08,11.99,2.49,23.95,5.16,35.99,7.44,19.2,3.62,38.5,6.68,57.94,8.74,7.91.84,15.81,1.84,23.71,2.79,8.71,1.05,17.19-1.07,25.75-1.96,8.54-.89,17.04-2.26,25.55-3.42,5.09-9.48,10.17-18.96,16.41-27.75.68-.96,1.28-1.94,1.46-3.13.17-1.34.66-2.58,1.16-3.82,4.98-12.29,1.99-23.17-7.05-32.03-5.26-5.15-6.18-10.57-5.1-17.15,3.46-21.07,8.85-41.7,14.12-62.35,1.08-4.24,2.05-8.5,2.3-11.03-2.34,8.81-2.43,19.68-3.04,30.51-.54,9.51-.11,18.99,2.66,28.14,2.39,7.87,8.55,12.54,15.52,16.11,9.39,4.82,19.54,7.56,29.64,10.41.68.19,1.3,0,1.83-.48-8.34-18.44-16.45-36.95-22.27-56.41-3.6-12.02-2.84-24.01-1.08-36,4.42-30.1,13.07-59.16,22.8-87.89,1.95-5.77,2-11.3,1.16-17.11-.4-2.78-.32-5.63-.46-8.45-15.77-6.27-24.03-19.89-32.38-33.33-1.87-3-2.75-4.18-5.96-1.24-11.63,10.68-23.5,21.1-35.62,31.24-19.25,16.11-38.89,31.73-58.73,47.1-38.76,30.03-78.29,59.03-117.72,88.16-31.49,23.25-66.3,38.18-105.02,44.18-16.59,2.57-33.22,4.35-50,4.92-5.48.19-10.95.65-16.42.99Z" style="fill:#a24f2a; stroke-width:0px;"/><path d="M1655.15,317.04c20.11,6.56,37.51,18.05,54.56,30.12,7.55,5.35,14.76,11.17,22.13,16.78,9.62-1.18,19.24-2.36,30.04-3.68-8.01-7.11-15.04-13.17-21.88-19.44-25.79-23.64-51.06-47.74-71.47-76.45-10.26-14.43-14.06-30.98-17.43-47.79-3.13-15.57-5.56-31.26-7.64-48.35-2.82,5.82-3.63,10.94-5,15.85-4.01,14.39-7,29-9.29,43.75-2.53,16.31,2.66,31.19,8.43,45.99,4.71,12.08,9.94,23.94,15.62,35.6,1.2,2.47,1.98,4.9,1.94,7.61Z" style="fill:#a24f2a; stroke-width:0px;"/><path d="M1583.79,355.92c14.16-14.21,29.32-27.06,47.79-35.44,2.39-1.09,4.7-2.51,7.45-2.61-.72-1.33-1.44-2.66-2.16-3.99-9.21-3.66-18.91-5.78-28.08-9.72-12.92-5.55-19.08-14.67-19.91-28.66-.94-15.79.6-31.35,2.19-46.96.15-1.45.53-2.88.8-4.34-1.52.05-1.51,1.26-1.75,2.2-5.93,23.23-12.24,46.38-16.72,69.96-.46,2.43-1.07,4.87-1.25,7.32-.43,5.97-.41,11.33,4.96,16.16,10.17,9.13,12.78,20.57,6.81,33.38-.42.9-1.05,1.75-.14,2.7Z" style="fill:#7a4421; stroke-width:0px;"/><path d="M1656.16,56.83c-12.12-.59-21.58-8.84-33.75-11.43,3.58,4.8,6.88,9.34,10.3,13.78,4.95,6.42,6.72,14.4,10.59,21.34,3.01,5.4,6.28,10.65,12.77,12.56,10.86-.65,21.44-3.12,32.14-4.89-10.68-11.39-21.68-22.39-34.91-30.27.61-.14,2.07.3,2.86-1.1Z" style="fill:#70371d; stroke-width:0px;"/><path d="M1656.16,56.83c-1.46.11-2.91.21-5.15.38,5.39,4.05,10.22,7.66,15.03,11.3,6.51,4.93,11.94,11.02,17.74,16.7,1.29,1.26,2.37,2.85,4.42,2.99,10.13-1.52,20.25-3.05,30.38-4.56,1.79-.27,3.6-.44,5.4-.66-5.09-5.91-11.71-9.82-18.64-12.81-15.71-6.78-31.99-11.83-49.18-13.33Z" style="fill:#a24f2a; stroke-width:0px;"/><path d="M1791.87,382.81c2.65,1.27,4.61,1.12,6.67-1.58,3.12-4.09,7.65-6.89,8.09-13.03.27-3.83,4.87-4.42,8.05-5.68-3.38-7.3-9.93-9.95-18.57-7.56.5,5.28-.85,10.51.54,15.94,1.15,4.48-2.11,8.34-4.77,11.91Z" style="fill:#a14f29; stroke-width:0px;"/><path d="M944.13,299.99c9.07.44,18.13,1.01,27.21,1.27,5.11.14,10.24-.23,15.37-.37-9.48-6.28-12.78-14.89-9.77-25.88-11.46-13.18-23.14-26.16-34.72-39.23-13.24-14.94-26.87-29.52-39.94-44.61-1.76-2.03-3.52-4.02-6.09-5.03-10-.48-19.99-.95-29.99-1.43,5.32,11.15,13.53,20.42,20.11,30.77,4.97,7.82,10.7,15.14,15.93,22.8,14.01,20.54,27.94,41.14,41.9,61.71Z" style="fill:#ccc; stroke-width:0px;"/><path d="M1729.83,198.06c5.9,8.17,15.55,9.52,23.96,13.07,5.16,2.18,10.56,3.8,15.78,5.86,2.57,1.01,3.44.64,3.41-2.33-.08-6.63-1.28-13.13-1.91-19.69-1.95-10.05-4.22-12.44-14.02-13.75-8.77-1.18-17.6-1.23-26.37.07-5.52.82-6.72,2.81-5.64,8.21.67,3.37,2.28,6.23,4.8,8.56Z" style="fill:#020101; stroke-width:0px;"/><path d="M1729.83,198.06c-1.48-3.83-3.78-7.37-3.85-11.7-.03-2.16.42-3.2,2.91-3.53,10.76-1.4,21.49-1.13,32.21.18,3.05.37,5.07,2.26,6.42,4.93,1.18,2.34,2.35,4.68,3.53,7.02,2.46-11.13-6.78-23.78-18.64-25.97-12.62-2.32-25.04-.23-37.48,1.27-1.19.14-4.29-.06-2.72,3.13,3.89,7.9,8.15,15.56,13.99,22.21.97,1.11,1.97,2.3,3.62,2.45Z" style="fill:#7a4421; stroke-width:0px;"/><path d="M1219.22,136.02c.2-1.36,2.32-.86,2.17-3.21-.49-7.95-.31-15.95-.23-23.94.02-1.98-.42-3.54-1.95-4.79-1.83-.45-3.39.43-5,1.03-1.05,9.95-.96,19.91-.07,29.87,1.53,1.14,3.25,1.33,5.07,1.03Z" style="fill:#8498be; stroke-width:0px;"/><path d="M1214.14,134.98c1.61-9.95,1.41-19.91.07-29.87-2.11.32-2.9,1.77-3.42,3.67-1.67,6.07-2.97,12.2-2.45,18.53.3,3.7,1.86,6.63,5.8,7.67Z" style="fill:#4b5c7b; stroke-width:0px;"/><path d="M975.68,1136.52l1.08,8.99-22.32-22.54c-2.98-3.01-5.39-6.52-7.13-10.38l-1.2-2.67c-.87-1.92-1.43-3.97-1.67-6.06l-2.97-25.79,1.46.98c4.38,2.96,9.6,4.41,14.88,4.13l18.34-.95-1.39,27.65c-.45,8.89-.13,17.8.93,26.64Z" style="fill:#3c2415; stroke-width:0px;"/></g></g><g id="Accent1"><path d="M1259.81,119.93c6.38,1.28,12.07,4.43,17.94,6.98,3.4,1.48,4.95.3,6.11-2.44.57-1.34,1.16-2.99.89-4.33-2.17-10.89,2.13-21,3.79-31.37,2.3-14.38,1.43-28.57-1.71-42.53-3.03-13.43-12.28-22.63-23.85-29.37-14.6-8.51-30.12-14.59-47.15-16.13-.6-.05-1.16-.49-1.73-.74-3,0-6,0-9,0-5.91,1.39-11.92,2.17-17.63,4.57-9.58,4.04-16.98,10.9-24.25,17.92-9.43,9.11-18.63,18.46-27.93,27.7-3.31,2.61-3.8,6.45-4.21,10.2-.28,2.57,1.33,4.34,3.56,5.47,1.92.97,3.92,1.78,5.82,2.76,3.37,1.55,6.72,3.17,10.17,4.55,12.78,6.3,25.99,11.67,38.82,17.85,3.91,1.35,7.52,3.36,11.31,4.97,4.45,1.76,8.83,3.67,13.17,5.68,2.52.77,4.84,2,7.22,3.11,7.38,3.07,14.81,6.02,22.16,9.17,1.74.78,3.44,1.66,5.25,2.28,3.86.89,7.2,3.37,11.24,3.69Z" style="fill:#009046; stroke-width:0px;"/><path d="M1119.12,125.99c-1.7-9.17-5.99-17.18-11.08-24.84-1.97-2.2-4.04-4.33-5.89-6.62-5.75-7.11-13.17-7.7-21.41-5.92-6.51,1.4-12.43,4.29-18.58,6.62-13.99,6.61-20.74,19.19-26.73,32.39-1.49,4.39-2.98,8.79-4.48,13.19-1.41.76-2.13,2.06-2.67,3.47-5.41,14.12-11.42,27.96-19.15,40.99-.51.86-.87,1.79-.75,2.84-2.65,5.51-5.31,11.03-7.96,16.54-2.42.72-3.05,2.93-3.92,4.86-6.1,13.53-11.33,27.39-16.24,41.39-2.71,7.74-4.12,15.78-4.52,23.98-3.51,11.68.73,20.42,10.32,27.12,12.55,11.07,28.42,13.17,43.92,16.25,10.31,2.05,20.81,3.82,31.2,3.59,16.89-.37,33.94,1.11,50.66-2.75,7.24-.38,14.47-.89,21.71-1.07,2.05-.05,3.38-.91,4.75-2.09,1.1-1.89,0-3.56-.65-5.2-2.56-6.54-3.89-13.38-4.92-20.28-.55-3.68,0-7.23.87-10.83,1.28-5.3,5.41-7.59,9.67-9.87.35-2.92-1.48-3.01-3.69-3.14-10.8-.64-21.62-.9-32.41-.34-17.02.87-33.33-2.77-49.64-6.81-3.15-.78-2.47-2.1-1.62-4.16,6.38-15.55,13.84-30.53,23.65-44.22,6.76-9.44,13.83-18.66,20.76-27.98,6.91-6.36,10.35-14.86,14.01-23.16,3.96-8.97,7.08-18.22,6.15-28.3-.18-1.96.14-4.01-1.34-5.65Z" style="fill:#009046; stroke-width:0px;"/></g><g id="Accent2"><path d="M1008.37,188.12c9.23-13.11,14.85-27.97,20.72-42.71.61-1.53,1.23-3.06,1.85-4.6-4.9-3.98-9.76-4.4-15.97-2.12-16.97,6.25-34.26,11.6-52.46,17.66,15.75,10.91,30.81,21.34,45.86,31.77Z" style="fill:#067d3f; stroke-width:0px;"/><path d="M1111.83,319.1c-13.62.43-27.25,1.03-40.87,1.26-23.04.4-45.51-3.38-67.56-9.86-6.32-1.86-11.37-5.99-16.69-9.61-2.64-1.09-5.35-1.55-8.23-1.56-8.94-.05-17.89.43-26.81-.81-2.55-.35-5.34-.61-7.54,1.47,7.71,11.55,15.38,23.13,23.12,34.65,8.46,12.6,6.14,25.82,2.3,39.11-3.96,13.7-7.03,27.55-7.56,41.86,2.32.97,1.73,2.6,1.34,4.54-3.97,19.62-7.92,39.24-11.68,58.9-3.76,19.66-7.62,39.3-10.25,59.16-.19,1.44-.47,3.01.75,4.26,13.48,3.03,27.13,4.97,40.94,5.16,12.67.18,25.17-1.22,37.07-6.13,5.64-2.32,9.27-5.76,11.52-11.91,10.55-28.84,20.03-57.97,25.8-88.19,3-15.71,4.83-31.45,2.78-47.53-2.03-15.88,5.6-28.59,14.92-40.44,10.46-13.3,23.64-23.74,36.66-34.34Z" style="fill:#067d3f; stroke-width:0px;"/><path d="M1025.15,21.17c-18.16,6.24-36.33,12.48-54.49,18.73-1.08.37-2.14.81-3.84,1.45,17.64,12.17,34.83,24.04,52.89,36.5-17.89,5.98-35.03,11.72-53.06,17.75,6.79,4.78,12.96,9.17,19.18,13.49,11.34,7.87,22.79,15.58,34,23.62,2.51,1.8,4.18,1.71,6.54.15,2.9-1.93,6.03-3.51,9.05-5.24,2.26-.58,2.91-2.53,3.68-4.36,4.35-10.28,10.08-19.41,20.46-24.72,1.43-.73,3.03-1.56,2.75-3.68-6.21-5.09-13.6-8.22-20.43-12.28-3.23-1.92-6.63-3.56-10.02-6.18,3.49-2.7,7.03-4.52,10.4-6.56,9.95-6.03,19.99-11.9,29.89-18.01,4.01-2.47,4.24-4.29.44-6.5-13.2-7.69-26.58-15.07-40.11-22.18-1.16-.61-2.61-.51-3.77-1.22-1.08-.78-2.25-1.1-3.57-.76Z" style="fill:#067d3f; stroke-width:0px;"/><path d="M1103.22,35.86c-6.4,9.77-4.67,20.22-2.32,30.61,1.5,6.61,4.32,12.72,7.52,18.77,2.63,4.97,3.29,10.71-.39,15.93-.41,1.22.02,2.32.66,3.3,3.94,6.02,6.87,12.49,8.73,19.44.3,1.13.94,2.13,2.02,2.75,2.08.88,4.26.72,6.44.59,7.36-1.36,11.8-5.98,14.84-12.6,3.11-6.76,3.71-14.06,5.4-21.13.79-8.93.24-17.61-4.72-25.47-.53-.38-1.02-.83-1.59-1.12q-9.06-4.6-5.51-13.95c.35-.91.65-1.84.98-2.76-2.1-.53-2.06-2.11-2.12-3.87-.3-7.77-4.41-13.74-10.88-16.06-6.63-2.38-13.82-.27-19.06,5.59Z" style="fill:#067d3f; stroke-width:0px;"/><path d="M885.99,411.07c-1.85-2.36-.78-5.09-.85-7.62-.42-14.14-.76-28.29-.94-42.44-.03-2.73-.82-4.61-2.89-6.39-29.24-25.17-58.42-50.42-87.63-75.63-.86-.75-1.9-1.29-2.85-1.93-6.43-.66-11.24,3.16-16.24,6.13-6.7,3.98-12.25,9.45-17.78,14.89-27.72,31.66-44.52,69.35-59.56,108-6.01,15.44-11.3,31.14-16.08,47.58,34.26-4.53,64.72,7.45,94.94,20.51,16.98,7.24,33.63,15.17,50.06,23.59,2.96,3.06,6.84,4.61,10.59,6.3,11.45,5.17,22.73,10.75,34.3,15.67,2.22.94,4.35,2.57,7.02,1.43,1.94-7.82,1.18-15.86,1.83-23.78,1.84-22.31,2.69-44.7,4.47-67.02.51-6.42,0-12.96,1.62-19.29Z" style="fill:#067d3f; stroke-width:0px;"/></g></svg>